<svg xmlns="http://www.w3.org/2000/svg" height="20" viewBox="0 -960 960 960" width="20"><path d="M168-192q-29.7 0-50.85-21.162Q96-234.324 96-264.04v-432.243Q96-726 117.15-747T168-768h624q29.7 0 50.85 21.162Q864-725.676 864-695.96v432.243Q864-234 842.85-213T792-192H168Zm0-72h624v-432H168v432Zm0 0v-432 432Zm463-24 51-51-69-69q12-18.857 18-39.429 6-20.571 6-43.482Q637-557 591.5-602.5T480-648q-66 0-111.5 45.706t-45.5 111Q323-426 368.792-381 414.583-336 480-336q21.938 0 42.188-5.5Q542.438-347 561-358l70 70ZM480-408q-35 0-60-24.099-25-24.098-25-59Q395-526 420-551t60-25q35 0 60 25t25 59.901q0 34.902-25 59Q515-408 480-408Z"/></svg>